<mxfile host="app.diagrams.net" modified="2022-08-31T08:04:17.233Z" agent="5.0 (Windows NT 10.0; Win64; x64) AppleWebKit/537.36 (KHTML, like Gecko) Chrome/104.0.0.0 Safari/537.36" etag="ebtUaaqFtM6_aPH2eH9e" version="20.2.7" type="github">
  <diagram id="S18_TpK9gsk9QMgYaNMF" name="Page-1">
    <mxGraphModel dx="1038" dy="571" grid="1" gridSize="10" guides="1" tooltips="1" connect="1" arrows="1" fold="1" page="1" pageScale="1" pageWidth="850" pageHeight="1100" math="0" shadow="0">
      <root>
        <mxCell id="0" />
        <mxCell id="1" parent="0" />
        <mxCell id="4xlWzfx_6xY2oFzD-5VY-43" value="" style="edgeStyle=orthogonalEdgeStyle;rounded=0;orthogonalLoop=1;jettySize=auto;html=1;" edge="1" parent="1" source="4xlWzfx_6xY2oFzD-5VY-2" target="4xlWzfx_6xY2oFzD-5VY-42">
          <mxGeometry relative="1" as="geometry" />
        </mxCell>
        <mxCell id="4xlWzfx_6xY2oFzD-5VY-2" value="Start" style="rounded=1;whiteSpace=wrap;html=1;" vertex="1" parent="1">
          <mxGeometry x="365" y="40" width="120" height="60" as="geometry" />
        </mxCell>
        <mxCell id="4xlWzfx_6xY2oFzD-5VY-45" value="" style="edgeStyle=orthogonalEdgeStyle;rounded=0;orthogonalLoop=1;jettySize=auto;html=1;" edge="1" parent="1" source="4xlWzfx_6xY2oFzD-5VY-42" target="4xlWzfx_6xY2oFzD-5VY-44">
          <mxGeometry relative="1" as="geometry" />
        </mxCell>
        <mxCell id="4xlWzfx_6xY2oFzD-5VY-42" value="Wake up" style="whiteSpace=wrap;html=1;rounded=1;" vertex="1" parent="1">
          <mxGeometry x="365" y="180" width="120" height="60" as="geometry" />
        </mxCell>
        <mxCell id="4xlWzfx_6xY2oFzD-5VY-47" value="" style="edgeStyle=orthogonalEdgeStyle;rounded=0;orthogonalLoop=1;jettySize=auto;html=1;" edge="1" parent="1" source="4xlWzfx_6xY2oFzD-5VY-44" target="4xlWzfx_6xY2oFzD-5VY-46">
          <mxGeometry relative="1" as="geometry" />
        </mxCell>
        <mxCell id="4xlWzfx_6xY2oFzD-5VY-44" value="Play games on my phone" style="whiteSpace=wrap;html=1;rounded=1;" vertex="1" parent="1">
          <mxGeometry x="565" y="180" width="120" height="60" as="geometry" />
        </mxCell>
        <mxCell id="4xlWzfx_6xY2oFzD-5VY-49" value="" style="edgeStyle=orthogonalEdgeStyle;rounded=0;orthogonalLoop=1;jettySize=auto;html=1;" edge="1" parent="1" source="4xlWzfx_6xY2oFzD-5VY-46" target="4xlWzfx_6xY2oFzD-5VY-48">
          <mxGeometry relative="1" as="geometry" />
        </mxCell>
        <mxCell id="4xlWzfx_6xY2oFzD-5VY-46" value="go shower" style="whiteSpace=wrap;html=1;rounded=1;" vertex="1" parent="1">
          <mxGeometry x="765" y="180" width="120" height="60" as="geometry" />
        </mxCell>
        <mxCell id="4xlWzfx_6xY2oFzD-5VY-51" value="" style="edgeStyle=orthogonalEdgeStyle;rounded=0;orthogonalLoop=1;jettySize=auto;html=1;" edge="1" parent="1" source="4xlWzfx_6xY2oFzD-5VY-48" target="4xlWzfx_6xY2oFzD-5VY-50">
          <mxGeometry relative="1" as="geometry" />
        </mxCell>
        <mxCell id="4xlWzfx_6xY2oFzD-5VY-48" value="eat breakfast" style="whiteSpace=wrap;html=1;rounded=1;" vertex="1" parent="1">
          <mxGeometry x="765" y="320" width="120" height="60" as="geometry" />
        </mxCell>
        <mxCell id="4xlWzfx_6xY2oFzD-5VY-53" value="" style="edgeStyle=orthogonalEdgeStyle;rounded=0;orthogonalLoop=1;jettySize=auto;html=1;" edge="1" parent="1" source="4xlWzfx_6xY2oFzD-5VY-50" target="4xlWzfx_6xY2oFzD-5VY-52">
          <mxGeometry relative="1" as="geometry" />
        </mxCell>
        <mxCell id="4xlWzfx_6xY2oFzD-5VY-50" value="Watch tv" style="whiteSpace=wrap;html=1;rounded=1;" vertex="1" parent="1">
          <mxGeometry x="565" y="320" width="120" height="60" as="geometry" />
        </mxCell>
        <mxCell id="4xlWzfx_6xY2oFzD-5VY-55" value="" style="edgeStyle=orthogonalEdgeStyle;rounded=0;orthogonalLoop=1;jettySize=auto;html=1;" edge="1" parent="1" source="4xlWzfx_6xY2oFzD-5VY-52" target="4xlWzfx_6xY2oFzD-5VY-54">
          <mxGeometry relative="1" as="geometry" />
        </mxCell>
        <mxCell id="4xlWzfx_6xY2oFzD-5VY-52" value="go to the car" style="whiteSpace=wrap;html=1;rounded=1;" vertex="1" parent="1">
          <mxGeometry x="365" y="320" width="120" height="60" as="geometry" />
        </mxCell>
        <mxCell id="4xlWzfx_6xY2oFzD-5VY-57" value="" style="edgeStyle=orthogonalEdgeStyle;rounded=0;orthogonalLoop=1;jettySize=auto;html=1;" edge="1" parent="1" source="4xlWzfx_6xY2oFzD-5VY-54" target="4xlWzfx_6xY2oFzD-5VY-56">
          <mxGeometry relative="1" as="geometry" />
        </mxCell>
        <mxCell id="4xlWzfx_6xY2oFzD-5VY-54" value="Get to bts" style="whiteSpace=wrap;html=1;rounded=1;" vertex="1" parent="1">
          <mxGeometry x="365" y="460" width="120" height="60" as="geometry" />
        </mxCell>
        <mxCell id="4xlWzfx_6xY2oFzD-5VY-59" value="" style="edgeStyle=orthogonalEdgeStyle;rounded=0;orthogonalLoop=1;jettySize=auto;html=1;" edge="1" parent="1" source="4xlWzfx_6xY2oFzD-5VY-56" target="4xlWzfx_6xY2oFzD-5VY-58">
          <mxGeometry relative="1" as="geometry" />
        </mxCell>
        <mxCell id="4xlWzfx_6xY2oFzD-5VY-56" value="ride bts" style="whiteSpace=wrap;html=1;rounded=1;" vertex="1" parent="1">
          <mxGeometry x="565" y="460" width="120" height="60" as="geometry" />
        </mxCell>
        <mxCell id="4xlWzfx_6xY2oFzD-5VY-58" value="reach school" style="whiteSpace=wrap;html=1;rounded=1;" vertex="1" parent="1">
          <mxGeometry x="765" y="460" width="120" height="60" as="geometry" />
        </mxCell>
      </root>
    </mxGraphModel>
  </diagram>
</mxfile>
